<?xml version="1.0" encoding="UTF-8" standalone="no"?>
<!-- Uploaded to: SVG Repo, www.svgrepo.com, Generator: SVG Repo Mixer Tools -->

<svg
   fill="#000000"
   height="800px"
   width="800px"
   version="1.1"
   id="Capa_1"
   viewBox="0 0 203.079 203.079"
   xml:space="preserve"
   sodipodi:docname="hand-pointer-svgrepo-com.svg"
   inkscape:version="1.3.2 (091e20e, 2023-11-25, custom)"
   xmlns:inkscape="http://www.inkscape.org/namespaces/inkscape"
   xmlns:sodipodi="http://sodipodi.sourceforge.net/DTD/sodipodi-0.dtd"
   xmlns="http://www.w3.org/2000/svg"
   xmlns:svg="http://www.w3.org/2000/svg"><defs
   id="defs1" /><sodipodi:namedview
   id="namedview1"
   pagecolor="#ffffff"
   bordercolor="#000000"
   borderopacity="0.25"
   inkscape:showpageshadow="2"
   inkscape:pageopacity="0.0"
   inkscape:pagecheckerboard="0"
   inkscape:deskcolor="#d1d1d1"
   inkscape:zoom="1.52125"
   inkscape:cx="399.67132"
   inkscape:cy="379.29334"
   inkscape:window-width="2880"
   inkscape:window-height="1514"
   inkscape:window-x="-11"
   inkscape:window-y="381"
   inkscape:window-maximized="1"
   inkscape:current-layer="Capa_1" />
<path
   d="m 172.27212,51.379363 -0.99287,-1.830004 c -5.91674,-10.905315 -19.60223,-14.96301 -30.50666,-9.046752 -2.46286,1.336237 -4.57274,3.07143 -6.30166,5.078906 -6.73211,-7.994115 -18.39739,-10.450394 -27.93592,-5.275218 -2.59031,1.405385 -4.78862,3.252273 -6.563654,5.392846 -6.899047,-7.005895 -18.262989,-8.988553 -27.398069,-4.032268 -2.459343,1.33433 -4.572794,3.09649 -6.308757,5.147605 L 53.380955,23.068368 C 47.46422,12.163053 33.778731,8.1053583 22.874295,14.021616 11.969859,19.937875 7.9108086,33.622961 13.827544,44.528276 L 45.425589,102.7676 c -5.859627,-2.54234 -12.11172,-4.136778 -18.019797,-3.501389 -6.592445,0.709756 -12.121741,4.052149 -15.991789,9.668499 -7.1170043,10.33035 -4.6342511,24.57325 5.534819,31.75158 l 51.541214,36.3879 c 1.434511,0.98741 35.468364,23.99823 65.609824,7.64483 l 35.15859,-19.07547 C 196.981,150.60253 207.23353,115.69408 192.1105,87.820351 L 172.29674,51.36601 Z M 162.10603,152.4586 126.94744,171.53407 c -21.71219,11.78006 -48.94335,-6.14082 -49.935722,-6.80609 L 25.600227,128.4324 c -3.547649,-2.50428 -4.352658,-7.33053 -1.83281,-10.98788 1.388557,-2.01622 3.003823,-3.02115 5.235263,-3.26364 8.897737,-0.96502 23.845187,9.53911 31.171496,16.38259 l 5.580027,5.23111 9.149575,-10.15093 -47.890885,-88.269153 c -1.972404,-3.635398 -0.619814,-8.196483 3.015584,-10.168887 3.635398,-1.972404 8.196483,-0.619814 10.168887,3.015584 l 41.250712,76.030446 0.119539,-0.0649 13.064931,-7.088443 0.119539,-0.06486 -18.1217,-33.400659 c -1.996725,-3.680225 -0.520735,-8.819089 3.097084,-10.781955 3.746147,-2.032492 8.703206,-0.734324 10.608369,2.77714 L 97.48914,70.812478 109.8882,93.66556 123.07267,86.512257 110.67361,63.659175 c -1.9724,-3.635398 -0.61981,-8.196483 3.01558,-10.168887 3.6354,-1.972404 8.19649,-0.619814 10.16889,3.015584 l 7.86863,14.502918 7.86864,14.502917 13.18447,-7.153302 -7.86864,-14.502918 c -1.9724,-3.635398 -0.61981,-8.196483 3.01559,-10.168887 3.6354,-1.972404 8.19648,-0.619814 10.16889,3.015584 l 5.11556,9.428655 0.0308,-0.01669 15.68866,28.863826 c 11.17497,20.599016 3.62714,46.384416 -16.82461,57.480626 z"
   id="path1"
   style="fill:#000000;fill-opacity:1"
   sodipodi:nodetypes="csscscscssscccccssccccsscccccccsssccccssscccssscccssscccs" />
<path
   style="fill:#ffffff;fill-opacity:1;stroke:#ffffff;stroke-width:5;stroke-dasharray:none;stroke-opacity:1"
   d="m 490.55044,680.01349 c -24.4592,13.27046 -55.37513,13.66033 -88.9406,7.93682 -13.01156,-2.21871 -38.88534,-10.07518 -53.46995,-16.23594 -14.06229,-5.9401 -33.84474,-16.16132 -43.06904,-22.25293 -8.64176,-5.70691 -203.21058,-143.16043 -206.577094,-145.93679 -4.264368,-3.5168 -8.225149,-10.26462 -9.406153,-16.02486 -2.350069,-11.46227 1.644232,-23.07868 10.700846,-31.12066 4.041391,-3.58863 7.520551,-5.076 13.947881,-5.96282 19.29474,-2.66227 51.17658,10.24938 86.78484,35.14651 15.7721,11.02777 27.69921,20.93905 47.23406,39.25091 6.0451,5.66664 11.29339,10.13639 11.66289,9.93278 0.36937,-0.20382 8.54532,-9.11921 18.16852,-19.81247 l 17.49673,-19.44229 -95.46116,-176.6366 -95.46115,-176.63659 -0.51712,-3.91212 c -0.89867,-6.79864 0.27576,-13.31211 3.55134,-19.69592 2.71884,-5.29876 8.89381,-10.51729 15.01785,-12.69174 10.7914,-3.83168 22.47626,-1.31077 30.60561,6.6029 2.91512,2.83777 5.41236,7.36415 85.42115,154.83081 l 82.41824,151.90757 26.57839,-14.42024 26.57839,-14.42024 -36.59217,-67.46092 c -39.82407,-73.41774 -38.17166,-70.03666 -38.42972,-78.65893 -0.16722,-5.58735 2.51979,-14.30484 5.86521,-19.02856 5.63933,-7.96272 13.27374,-11.97737 23.51905,-12.36783 7.24675,-0.27616 13.95061,1.75291 19.78027,5.98693 l 4.48821,3.25975 40.20266,73.72864 40.20266,73.72865 26.27881,-14.2577 26.2788,-14.25771 -25.32631,-46.67968 c -27.57744,-50.82884 -27.25044,-50.13197 -27.23997,-58.05165 0.006,-4.33842 2.48373,-12.39044 4.89191,-15.89583 10.85853,-15.80589 32.7093,-17.21625 46.03109,-2.97109 2.36232,2.52608 6.97951,10.75353 34.48028,61.44104 l 31.75272,58.5244 26.27082,-14.25337 26.27082,-14.25337 -17.15685,-32.01146 -17.15684,-32.01145 -0.29249,-5.66087 c -0.37161,-7.19248 1.4547,-13.34874 5.67675,-19.1355 11.37953,-15.59676 34.57352,-15.60534 46.55328,-0.0172 3.55024,4.61959 86.44573,157.37709 90.61037,166.97423 8.59848,19.81471 13.03482,39.59549 13.75714,61.34033 1.6737,50.38599 -19.03344,98.4664 -56.5484,131.30098 -13.43649,11.76015 -10.61691,10.09605 -94.60266,55.8328 -42.3884,23.08372 -79.79831,42.80446 -82.82973,44.44917 z"
   id="path2"
   transform="scale(0.25384875)"
   sodipodi:nodetypes="sssssssssscscccsssssccccsssscccccssssscccccsssssssss" /></svg>
